<?xml version="1.0" encoding="UTF-8"?><svg id="Layer_3" xmlns="http://www.w3.org/2000/svg" viewBox="0 0 279.21 199.07"><defs><style>.cls-1,.cls-2{stroke:#2c403d;}.cls-1,.cls-2,.cls-3,.cls-4,.cls-5{stroke-linecap:round;}.cls-1,.cls-2,.cls-3,.cls-5{stroke-width:3px;}.cls-1,.cls-2,.cls-4{stroke-linejoin:round;}.cls-1,.cls-5{fill:#fff;}.cls-2{fill:#2c403d;}.cls-3,.cls-4{fill:none;}.cls-3,.cls-5{stroke:#648c8d;stroke-miterlimit:10;}.cls-4{stroke:#8fc0bf;stroke-width:2px;}</style></defs><path class="cls-4" d="M37.7,112.87c22.35-6.44,40.22-7.11,51.61-6.74,49.28,1.59,71.46,25.49,115.25,21.25,18-1.75,32.02-7.51,40.07-11.4"/><path class="cls-4" d="M37.24,81.41c21.74-6.51,39.29-7.1,51.2-6.47,47.22,2.51,71.01,27.68,115.25,21.25,11.09-1.61,19.87-4.69,25.31-6.9"/><path class="cls-4" d="M34.54,97.02c22.35-6.44,40.22-7.11,51.61-6.74,49.28,1.59,71.46,25.49,115.25,21.25,18-1.75,32.02-7.51,40.07-11.4"/><line class="cls-1" x1="168.42" y1="176.47" x2="168.42" y2="170.7"/><polygon class="cls-5" points="148.8 170.7 168.22 73.23 187.62 170.7 148.8 170.7"/><line class="cls-2" x1="114.95" y1="178.38" x2="114.95" y2="170.2"/><polygon class="cls-3" points="87.14 170.2 114.67 32.03 142.17 170.2 87.14 170.2"/></svg>